<svg viewBox="0 0 100 100" xmlns="http://www.w3.org/2000/svg" style="height: 100%; width: 100%; background: ;" width="186px" height="186px"><g class="ldl-scale" style="transform-origin: 50% 50%; transform: rotate(0deg) scale(1, 1);"><g class="ldl-ani"><g class="ldl-layer"><g class="ldl-ani" style="transform: scale(0.91); transform-origin: 50px 50px; animation: 1.11111s linear -0.740741s infinite normal forwards running breath-244e33ca-bc87-499e-acba-e1a2439ddcaa;"><path fill="#f8b26a" clip-rule="evenodd" fill-rule="evenodd" d="M89.121 62.109c-.465-.525-1.272-1.547-1.978-1.694.341 2.204.379 4.274-.654 6.215a5.364 5.364 0 0 0-4.295-4.694c.853-.883 1.716-1.764 2.321-2.799 1.331-2.279 1.458-5.166.489-7.617-.969-2.451-2.975-4.449-5.377-5.586-1.135-.537-2.388-.913-3.302-1.768 1.699 2.906 1.914 6.612.562 9.691-1.083 2.466-3.043 4.428-4.82 6.465-1.568 1.798-3.19 3.78-3.895 6.118-.764 2.535-.178 5.348 1.164 7.601 1.318 2.213 3.534 3.831 5.98 4.698 4.172 1.48 9.071.767 12.634-1.838 1.775-1.298 3.243-3.073 3.899-5.156 1.022-3.242-.558-7.185-2.728-9.636z" style="fill: rgb(248, 178, 106);"></path></g></g><g class="ldl-layer"><g class="ldl-ani" style="transform: scale(0.91); transform-origin: 50px 50px; animation: 1.11111s linear -0.925926s infinite normal forwards running breath-244e33ca-bc87-499e-acba-e1a2439ddcaa;"><path fill="#f8b26a" clip-rule="evenodd" fill-rule="evenodd" d="M29.121 62.109c-.465-.525-1.272-1.547-1.978-1.694.341 2.204.379 4.274-.654 6.215a5.364 5.364 0 0 0-4.295-4.694c.853-.883 1.716-1.764 2.32-2.799 1.331-2.279 1.458-5.166.489-7.617-.969-2.451-2.975-4.449-5.377-5.586-1.135-.537-2.388-.913-3.302-1.768 1.699 2.906 1.914 6.612.562 9.691-1.083 2.466-3.043 4.428-4.82 6.465-1.568 1.798-3.19 3.78-3.895 6.118-.764 2.535-.178 5.348 1.164 7.601 1.318 2.213 3.534 3.831 5.98 4.698 4.172 1.48 9.071.767 12.634-1.838 1.775-1.298 3.243-3.073 3.899-5.156 1.023-3.242-.557-7.185-2.727-9.636z" style="fill: rgb(248, 178, 106);"></path></g></g><g class="ldl-layer"><g class="ldl-ani" style="transform: scale(0.91); transform-origin: 50px 50px; animation: 1.11111s linear -1.11111s infinite normal forwards running breath-244e33ca-bc87-499e-acba-e1a2439ddcaa;"><path fill="#e15b64" clip-rule="evenodd" fill-rule="evenodd" d="M65.231 50.461c-.777-.877-2.124-2.584-3.302-2.829.569 3.68.633 7.136-1.092 10.377a8.956 8.956 0 0 0-7.172-7.838c1.424-1.475 2.865-2.945 3.875-4.673 2.223-3.805 2.435-8.626.817-12.719s-4.968-7.429-8.978-9.327c-1.895-.897-3.987-1.525-5.514-2.952 2.838 4.852 3.196 11.042.938 16.182-1.809 4.117-5.082 7.395-8.048 10.795-2.619 3.002-5.327 6.311-6.504 10.215-1.276 4.234-.298 8.93 1.944 12.692 2.201 3.695 5.901 6.397 9.985 7.845 6.966 2.471 15.146 1.281 21.096-3.07 2.964-2.167 5.415-5.131 6.511-8.609 1.705-5.413-.933-11.996-4.556-16.089z" style="fill: rgb(225, 91, 100);"></path></g></g><metadata xmlns:d="https://loading.io/stock/">
<d:name>fire</d:name>
<d:tags>fire,flame,inferno,burn,hot,warm,temperature,flare,cook,scold,grill</d:tags>
<d:license>by</d:license>
<d:slug>me98mq</d:slug>
</metadata></g></g></svg>